<?xml version="1.0" encoding="UTF-8"?>
<svg xmlns="http://www.w3.org/2000/svg" width="130" height="38" viewBox="0 0 130 38" fill="none">
  <g clip-path="url(#clip0_135_1826)">
    <path d="M128.39 24.9246H128.646C128.756 24.9246 128.831 24.9328 128.87 24.9471C128.91 24.9635 128.943 24.986 128.966 25.0187C128.989 25.0515 128.999 25.0862 128.999 25.1272C128.999 25.1906 128.976 25.2397 128.928 25.2786C128.881 25.3174 128.791 25.3359 128.663 25.3359H128.39V24.9246ZM128.39 26.095V25.52H128.521C128.6 25.52 128.658 25.5343 128.7 25.5671C128.758 25.61 128.835 25.7144 128.932 25.8822L129.055 26.095H129.325L129.157 25.829C129.076 25.7042 129.009 25.6141 128.953 25.5609C128.924 25.5323 128.885 25.5098 128.837 25.4893C128.955 25.4811 129.051 25.4402 129.124 25.3666C129.196 25.2929 129.232 25.207 129.232 25.1087C129.232 25.0392 129.211 24.9737 129.167 24.9103C129.124 24.8489 129.067 24.8039 128.995 24.7793C128.922 24.7548 128.806 24.7425 128.644 24.7425H128.172V26.095H128.393H128.39ZM129.25 24.4888C129.42 24.5788 129.551 24.7077 129.647 24.8755C129.742 25.0433 129.79 25.2172 129.79 25.3993C129.79 25.5814 129.742 25.7533 129.649 25.919C129.555 26.0847 129.425 26.2136 129.256 26.3057C129.088 26.3978 128.912 26.4449 128.729 26.4449C128.546 26.4449 128.37 26.3978 128.202 26.3057C128.033 26.2136 127.903 26.0847 127.807 25.919C127.714 25.7533 127.666 25.5814 127.666 25.3993C127.666 25.2172 127.714 25.0433 127.809 24.8755C127.905 24.7077 128.037 24.5788 128.206 24.4888C128.374 24.3987 128.548 24.3537 128.727 24.3537C128.905 24.3537 129.078 24.3987 129.248 24.4888H129.25ZM128.104 24.3067C127.9 24.4151 127.743 24.5686 127.628 24.7691C127.514 24.9696 127.456 25.1804 127.456 25.3972C127.456 25.6141 127.512 25.8208 127.624 26.0193C127.736 26.2177 127.894 26.3732 128.096 26.4837C128.297 26.5942 128.509 26.6495 128.729 26.6495C128.949 26.6495 129.161 26.5942 129.362 26.4837C129.564 26.3732 129.722 26.2198 129.834 26.0193C129.946 25.8208 130.002 25.6121 130.002 25.3972C130.002 25.1824 129.946 24.9696 129.832 24.7691C129.717 24.5686 129.56 24.4131 129.356 24.3067C129.153 24.1982 128.945 24.145 128.731 24.145C128.517 24.145 128.31 24.1982 128.106 24.3067H128.104Z" fill="#231F20"></path>
    <path d="M44.687 26.6863V11.4017H55.1383V14.0658H47.9659V17.7079H54.6004V20.3719H47.9659V24.0222H55.1694V26.6863H44.687Z" fill="black"></path>
    <path d="M71.1383 11.4017V26.6863H68.3059L61.5571 17.0654H61.4429V26.6863H58.1641V11.4017H61.0422L67.7369 21.0144H67.874V11.4017H71.1383Z" fill="black"></path>
    <path d="M73.25 14.0658V11.4017H86.4008L85.1673 14.0658H81.2405V26.6863H77.9991V14.0658H73.25Z" fill="black"></path>
    <path d="M95.9382 26.6863H99.4517L94.1046 11.4017H89.8788L84.5234 26.6863H88.0369L89.1874 23.2017H94.7878L95.9361 26.6863H95.9382ZM90.0221 20.6788L91.9325 14.8945H92.053L93.9593 20.6788H90.0221Z" fill="black"></path>
    <path d="M114.276 16.7524H110.958C110.898 16.3288 110.773 15.9523 110.586 15.6209C110.399 15.2894 110.161 15.007 109.868 14.7738C109.575 14.5405 109.239 14.3605 108.856 14.2356C108.474 14.1108 108.063 14.0494 107.619 14.0494C106.815 14.0494 106.118 14.2459 105.522 14.6346C104.926 15.0254 104.465 15.5922 104.134 16.337C103.806 17.0818 103.642 17.9821 103.642 19.042C103.642 20.1019 103.808 21.0472 104.139 21.7879C104.469 22.5286 104.932 23.0892 105.528 23.4677C106.124 23.8463 106.813 24.0345 107.596 24.0345C108.034 24.0345 108.443 23.9772 108.819 23.8626C109.195 23.7481 109.529 23.5803 109.822 23.3593C110.115 23.1383 110.358 22.8682 110.553 22.549C110.748 22.2298 110.883 21.8677 110.958 21.4584L114.276 21.4728C114.191 22.1746 113.977 22.8498 113.637 23.4984C113.296 24.147 112.839 24.7281 112.266 25.2376C111.693 25.7471 111.012 26.1502 110.221 26.4469C109.43 26.7436 108.539 26.8909 107.544 26.8909C106.161 26.8909 104.926 26.5819 103.837 25.966C102.749 25.3502 101.892 24.456 101.263 23.2877C100.633 22.1193 100.32 20.7034 100.32 19.042C100.32 17.3805 100.638 15.9564 101.275 14.7881C101.91 13.6198 102.774 12.7256 103.867 12.1118C104.957 11.4979 106.184 11.189 107.548 11.189C108.447 11.189 109.282 11.3138 110.053 11.5614C110.823 11.8089 111.506 12.1731 112.102 12.6478C112.698 13.1225 113.184 13.7036 113.56 14.3911C113.936 15.0766 114.177 15.8643 114.283 16.7503" fill="black"></path>
    <path d="M116.042 14.0658C115.682 12.6253 114.291 11.4017 114.291 11.4017H128.781V14.0658H124.032V26.6863H120.791V14.0658H116.042Z" fill="black"></path>
    <path d="M18.7761 0.5C8.40585 0.5 0 8.7827 0 19.001C0 29.2193 8.40585 37.502 18.7761 37.502C29.1464 37.502 37.5522 29.2193 37.5522 19.001C37.5522 8.7827 29.1443 0.5 18.7761 0.5Z" fill="black"></path>
    <path d="M26.9889 23.7705H10.5635V26.5798H26.9889V23.7705Z" fill="#00A9A1"></path>
    <path d="M26.9889 17.5953H10.5635V20.4067H26.9889V17.5953Z" fill="#00A9A1"></path>
    <path d="M26.9889 11.4202H10.5635V14.2295H26.9889V11.4202Z" fill="#00A9A1"></path>
  </g>
  <defs>
    <clipPath id="clip0_135_1826">
      <rect width="130" height="37" fill="white" transform="translate(0 0.5)"></rect>
    </clipPath>
  </defs>
</svg>
